# xmcd
#
# Track frame offsets:
#	150
#	17083
#	34117
#	56127
#	70527
#	93618
#	113393
#	132827
#	148533
#	171943
#	190353
#	210845
#	226287
#	254340
#	274312
#	291580
#
# Disc length: 4144 seconds
#
# Revision: 1
# Processed by: cddbd v1.5.2PL0 Copyright (c) Steve Scherf et al.
# Submitted via: audiograbber 1.83.01
#
DISCID=ea102e10
DTITLE=Best Of Rock - Melodic Rock
DYEAR=1900
DGENRE=Rock
TTITLE0=Styx - You Need Love
TTITLE1=John Miles - Can't Keep A Good Man Down
TTITLE2=Elton John - Saturday Night's Alright (For Fighting)
TTITLE3=Robert Palmer - Bad Case Of Loving You (Doctor, Doctor)
TTITLE4=Bad English - Possession
TTITLE5=Richard Marx - One More Try
TTITLE6=Julian Lennon - Get A Life
TTITLE7=Cher - You Wouldn't Know Love
TTITLE8=Toto - Pamela
TTITLE9=Journey - Only The Young
TTITLE10=Alan Parsons Project - Eye In The Sky
TTITLE11=Kansas - Dust In The Wind
TTITLE12=Golden Earring - Kill me (ce soir)
TTITLE13=Aldo Nova - Bang Bang
TTITLE14=Scorpions - Rhythm Of Love
TTITLE15=Steve Lukather - Lonely Beat Of My Heart
EXTD=
EXTT0=
EXTT1=
EXTT2=
EXTT3=
EXTT4=
EXTT5=
EXTT6=
EXTT7=
EXTT8=
EXTT9=
EXTT10=
EXTT11=
EXTT12=
EXTT13=
EXTT14=
EXTT15=
PLAYORDER=
